<svg xmlns="http://www.w3.org/2000/svg" width="60" height="60" fill="none"><path fill="#000" d="M0 22.4c0-7.84 0-11.761 1.526-14.756a14 14 0 0 1 6.118-6.118C10.64 0 14.56 0 22.4 0h15.2c7.84 0 11.761 0 14.756 1.526a14 14 0 0 1 6.118 6.118C60 10.64 60 14.56 60 22.4v15.2c0 7.84 0 11.761-1.526 14.756a14 14 0 0 1-6.118 6.118C49.36 60 45.44 60 37.6 60H22.4c-7.84 0-11.761 0-14.756-1.526a14 14 0 0 1-6.118-6.118C0 49.36 0 45.44 0 37.6V22.4Z"/><path fill="#fff" d="M13.278 24.968c2.198 0 3.897-1.696 3.897-4.204V11h2.38v15.82h-2.357v-1.468c-1.065 1.107-2.538 1.74-4.192 1.74C9.606 27.092 7 24.628 7 20.9v-9.898H9.38v9.76c0 2.554 1.676 4.205 3.897 4.205M21.322 11h2.288v5.763a5.718 5.718 0 0 1 4.102-1.718c3.399 0 6.072 2.69 6.072 6.035 0 3.323-2.673 6.012-6.072 6.012a5.781 5.781 0 0 1-4.126-1.718v1.446h-2.268L21.322 11Zm6.231 14.08c2.176 0 3.966-1.785 3.966-4 0-2.238-1.79-4-3.966-4a3.98 3.98 0 0 0-3.988 4c0 2.215 1.767 4 3.988 4ZM40.629 15.069c3.33 0 5.778 2.553 5.778 5.989v.746h-9.402c.317 1.876 1.88 3.277 3.828 3.277 1.338 0 2.47-.543 3.331-1.695l1.655 1.22c-1.156 1.537-2.878 2.463-4.986 2.463-3.467 0-6.14-2.576-6.14-6.011 0-3.255 2.56-5.99 5.936-5.99Zm-3.58 4.927h7.047c-.385-1.763-1.813-2.939-3.512-2.939-1.7 0-3.127 1.176-3.535 2.939ZM52.547 17.329c-1.495 0-2.583 1.152-2.583 2.938v6.554h-2.29V15.295h2.268v1.425c.567-.927 1.496-1.515 2.765-1.515h.793v2.125l-.953-.001ZM18.733 32.67l5.793 7.934-5.793 7.934h-2.368l5.074-6.918H7v-2.032h14.439l-5.074-6.918h2.368Z"/></svg>