<svg xmlns="http://www.w3.org/2000/svg" width="60" height="60" fill="none"><path fill="#000" d="M0 22.4c0-7.84 0-11.761 1.526-14.756a14 14 0 0 1 6.118-6.118C10.64 0 14.56 0 22.4 0h15.2c7.84 0 11.761 0 14.756 1.526a14 14 0 0 1 6.118 6.118C60 10.64 60 14.56 60 22.4v15.2c0 7.84 0 11.761-1.526 14.756a14 14 0 0 1-6.118 6.118C49.36 60 45.44 60 37.6 60H22.4c-7.84 0-11.761 0-14.756-1.526a14 14 0 0 1-6.118-6.118C0 49.36 0 45.44 0 37.6V22.4Z"/><path fill="#fff" d="M13.131 35.865c2.177 0 3.86-1.68 3.86-4.164v-9.67h2.356v15.67h-2.334v-1.456c-1.054 1.097-2.513 1.724-4.151 1.724-3.367 0-5.948-2.44-5.948-6.132v-9.803H9.27V31.7c0 2.53 1.66 4.164 3.86 4.164M21.098 22.032h2.267v5.708a5.661 5.661 0 0 1 4.062-1.702c3.367 0 6.014 2.664 6.014 5.977 0 3.29-2.648 5.954-6.014 5.954a5.723 5.723 0 0 1-4.087-1.701V37.7h-2.245l.003-15.668Zm6.172 13.945c2.155 0 3.928-1.769 3.928-3.962a3.936 3.936 0 0 0-3.928-3.962 3.941 3.941 0 0 0-3.95 3.962 3.941 3.941 0 0 0 3.95 3.962ZM40.22 26.06c3.3 0 5.723 2.53 5.723 5.933v.738H36.63c.315 1.858 1.863 3.246 3.792 3.246 1.326 0 2.447-.537 3.3-1.679l1.638 1.209c-1.145 1.522-2.85 2.44-4.938 2.44-3.433 0-6.082-2.552-6.082-5.954 0-3.224 2.536-5.932 5.88-5.932Zm-3.546 4.88h6.98c-.381-1.745-1.795-2.91-3.478-2.91-1.684 0-3.098 1.165-3.502 2.91ZM52.025 28.3c-1.481 0-2.559 1.14-2.559 2.91v6.49H47.2V26.285h2.246v1.411c.561-.918 1.481-1.5 2.738-1.5h.785V28.3h-.943Z"/></svg>